 <svg  version="1.0" xmlns="http://www.w3.org/2000/svg"  width="300.000000pt" height="208.000000pt" viewBox="0 0 300.000000 208.000000"  preserveAspectRatio="xMidYMid meet">  <g transform="translate(0.000000,208.000000) scale(0.100000,-0.100000)" fill="#fafafa" stroke="none"> <path d="M634 2006 c-17 -8 -41 -26 -53 -42 -35 -45 -309 -518 -304 -526 7 -13 2443 -10 2443 2 0 6 -53 102 -118 213 -65 111 -133 228 -151 259 -45 80 -80 103 -156 103 -58 0 -66 -4 -258 -114 l-197 -113 -88 13 c-114 17 -382 18 -502 1 l-95 -14 -160 92 c-88 51 -181 103 -207 116 -53 27 -107 30 -154 10z"/> <path d="M230 760 c0 -23 53 -148 87 -204 49 -81 187 -222 276 -284 188 -130 447 -221 712 -252 454 -52 937 87 1219 350 110 103 197 235 230 348 l15 52 -1270 0 c-819 0 -1269 -3 -1269 -10z m1340 -116 c0 -16 -11 -36 -30 -52 -16 -15 -30 -29 -30 -33 0 -17 178 -49 271 -49 78 0 117 12 141 43 22 29 35 14 14 -17 -19 -30 -71 -46 -151 -46 -72 0 -214 22 -274 43 -38 14 -48 14 -85 0 -115 -41 -327 -55 -385 -25 -38 19 -60 47 -47 59 4 4 12 0 18 -11 27 -49 156 -60 317 -26 51 10 96 22 99 25 4 3 -6 16 -21 28 -27 22 -51 70 -40 81 4 3 51 6 105 6 l98 0 0 -26z"/> <path d="M1390 637 c0 -16 24 -39 57 -56 18 -9 29 -8 53 4 26 13 50 42 50 59 0 3 -36 6 -80 6 -60 0 -80 -3 -80 -13z"/> </g> </svg> 