<?xml version="1.0" standalone="no"?>
<!DOCTYPE svg PUBLIC "-//W3C//DTD SVG 20010904//EN"
 "http://www.w3.org/TR/2001/REC-SVG-20010904/DTD/svg10.dtd">
<svg version="1.0" xmlns="http://www.w3.org/2000/svg"
 width="308.000000pt" height="214.000000pt" viewBox="0 0 308.000000 214.000000"
 preserveAspectRatio="xMidYMid meet">
<metadata>
Created by potrace 1.10, written by Peter Selinger 2001-2011
</metadata>
<g transform="translate(0.000000,214.000000) scale(0.100000,-0.100000)"
fill="#000000" stroke="none">
<path d="M655 2066 c-16 -7 -40 -24 -52 -37 -12 -13 -89 -141 -172 -284 l-150
-260 629 -3 c347 -1 913 -1 1258 0 l628 3 -156 269 c-179 309 -189 321 -284
321 -60 0 -65 -3 -264 -119 l-203 -118 -87 13 c-112 18 -412 18 -525 0 l-87
-13 -212 121 c-226 129 -253 138 -323 107z"/>
<path d="M240 779 c0 -32 57 -162 102 -231 22 -34 68 -91 102 -126 457 -477
1410 -551 2004 -156 191 128 351 335 387 502 l7 32 -1301 0 -1301 0 0 -21z
m1373 -95 c11 -12 -16 -65 -46 -88 l-30 -24 39 -11 c21 -6 84 -18 140 -27 131
-22 206 -14 246 26 30 30 47 24 26 -9 -17 -28 -52 -41 -122 -47 -66 -6 -227
16 -311 42 -47 15 -55 15 -100 -1 -78 -26 -252 -49 -316 -41 -69 9 -119 37
-119 68 l0 23 18 -21 c31 -39 62 -49 157 -48 85 1 162 12 247 36 l36 11 -39
37 c-22 21 -39 46 -39 58 0 21 4 22 103 22 57 0 106 -3 110 -6z"/>
<path d="M1430 656 c0 -18 56 -66 77 -66 22 0 83 48 83 66 0 11 -17 14 -80 14
-62 0 -80 -3 -80 -14z"/>
</g>
</svg>
