<svg width="70" height="42" viewBox="0 0 70 42" fill="none" xmlns="http://www.w3.org/2000/svg">
<rect width="70" height="42" rx="15" fill="#80455E"/>
<path d="M28.85 26.1C29.7 25.45 30.65 24.9375 31.7 24.5625C32.75 24.1875 33.85 24 35 24C36.15 24 37.25 24.1875 38.3 24.5625C39.35 24.9375 40.3 25.45 41.15 26.1C41.7333 25.4167 42.1875 24.6417 42.5125 23.775C42.8375 22.9083 43 21.9833 43 21C43 18.7833 42.2208 16.8958 40.6625 15.3375C39.1042 13.7792 37.2167 13 35 13C32.7833 13 30.8958 13.7792 29.3375 15.3375C27.7792 16.8958 27 18.7833 27 21C27 21.9833 27.1625 22.9083 27.4875 23.775C27.8125 24.6417 28.2667 25.4167 28.85 26.1ZM35 22C34.0167 22 33.1875 21.6625 32.5125 20.9875C31.8375 20.3125 31.5 19.4833 31.5 18.5C31.5 17.5167 31.8375 16.6875 32.5125 16.0125C33.1875 15.3375 34.0167 15 35 15C35.9833 15 36.8125 15.3375 37.4875 16.0125C38.1625 16.6875 38.5 17.5167 38.5 18.5C38.5 19.4833 38.1625 20.3125 37.4875 20.9875C36.8125 21.6625 35.9833 22 35 22ZM35 31C33.6167 31 32.3167 30.7375 31.1 30.2125C29.8833 29.6875 28.825 28.975 27.925 28.075C27.025 27.175 26.3125 26.1167 25.7875 24.9C25.2625 23.6833 25 22.3833 25 21C25 19.6167 25.2625 18.3167 25.7875 17.1C26.3125 15.8833 27.025 14.825 27.925 13.925C28.825 13.025 29.8833 12.3125 31.1 11.7875C32.3167 11.2625 33.6167 11 35 11C36.3833 11 37.6833 11.2625 38.9 11.7875C40.1167 12.3125 41.175 13.025 42.075 13.925C42.975 14.825 43.6875 15.8833 44.2125 17.1C44.7375 18.3167 45 19.6167 45 21C45 22.3833 44.7375 23.6833 44.2125 24.9C43.6875 26.1167 42.975 27.175 42.075 28.075C41.175 28.975 40.1167 29.6875 38.9 30.2125C37.6833 30.7375 36.3833 31 35 31Z" fill="white"/>
</svg>
