<svg width="56" height="32" viewBox="0 0 56 32" fill="none" xmlns="http://www.w3.org/2000/svg">
<g clip-path="url(#clip0_136_2240)">
<path d="M27 21H29V17H33V15H29V11H27V15H23V17H27V21ZM28 26C26.6167 26 25.3167 25.7417 24.1 25.225C22.8833 24.6917 21.825 23.975 20.925 23.075C20.025 22.175 19.3083 21.1167 18.775 19.9C18.2583 18.6833 18 17.3833 18 16C18 14.6167 18.2583 13.3167 18.775 12.1C19.3083 10.8833 20.025 9.825 20.925 8.925C21.825 8.025 22.8833 7.31667 24.1 6.8C25.3167 6.26667 26.6167 6 28 6C29.3833 6 30.6833 6.26667 31.9 6.8C33.1167 7.31667 34.175 8.025 35.075 8.925C35.975 9.825 36.6833 10.8833 37.2 12.1C37.7333 13.3167 38 14.6167 38 16C38 17.3833 37.7333 18.6833 37.2 19.9C36.6833 21.1167 35.975 22.175 35.075 23.075C34.175 23.975 33.1167 24.6917 31.9 25.225C30.6833 25.7417 29.3833 26 28 26ZM28 24C30.2333 24 32.125 23.225 33.675 21.675C35.225 20.125 36 18.2333 36 16C36 13.7667 35.225 11.875 33.675 10.325C32.125 8.775 30.2333 8 28 8C25.7667 8 23.875 8.775 22.325 10.325C20.775 11.875 20 13.7667 20 16C20 18.2333 20.775 20.125 22.325 21.675C23.875 23.225 25.7667 24 28 24Z" fill="#49454F"/>
</g>
<defs>
<clipPath id="clip0_136_2240">
<rect width="56" height="32" rx="16" fill="white"/>
</clipPath>
</defs>
</svg>
