<svg width="51" height="40" viewBox="0 0 51 40" fill="none" xmlns="http://www.w3.org/2000/svg">
<g clip-path="url(#clip0_35_2048)">
<path d="M9.77332 7.29223C9.53739 7.45785 9.22185 7.79332 9.0824 8.06719C8.6713 8.84068 5.76886 16.7262 5.86534 16.8344C6.00512 17.0132 42.8051 10.6148 42.7737 10.4329C42.758 10.3419 41.7059 9.02476 40.4333 7.51146C39.1607 5.99817 37.8271 4.40173 37.474 3.9787C36.5847 2.88322 35.9957 2.62581 34.8474 2.82401C33.971 2.97527 33.8606 3.05678 31.2473 5.22515L28.5663 7.45204L27.2026 7.48446C25.4356 7.52403 21.3835 8.2078 19.6148 8.77848L18.216 9.23848L15.5577 8.26098C14.0946 7.7173 12.5533 7.17149 12.1264 7.04221C11.2549 6.7711 10.4312 6.86645 9.77332 7.29223Z" fill="#FAFAFA"/>
<path d="M6.92923 27.2358C6.98942 27.5845 8.11732 29.3413 8.77759 30.1016C9.72993 31.2018 12.184 32.9795 13.6911 33.6874C16.8719 35.168 21.0235 35.8721 25.1087 35.651C32.1047 35.2553 39.0391 31.8884 42.6119 27.1658C44.0045 25.3174 44.9736 23.0893 45.1766 21.2901L45.2672 20.4626L26.0776 23.7747C13.7025 25.9106 6.91092 27.1296 6.92923 27.2358ZM27.4801 25.4998C27.5219 25.7423 27.4081 26.0742 27.1628 26.3663C26.9603 26.6355 26.7854 26.8842 26.7959 26.9449C26.8404 27.2026 29.6137 27.2235 31.0189 26.981C32.1975 26.7776 32.7554 26.4939 33.0369 25.9614C33.2934 25.4643 33.5291 25.6578 33.2929 26.1826C33.0843 26.6869 32.3405 27.0651 31.1317 27.2738C30.0437 27.4615 27.8406 27.4983 26.879 27.3364C26.2682 27.2233 26.1171 27.2494 25.5947 27.5581C23.9643 28.4796 20.7977 29.2447 19.8428 28.9412C19.2189 28.7522 18.8132 28.3851 18.9782 28.1693C19.0282 28.0982 19.1595 28.138 19.279 28.2891C19.8152 28.9615 21.7931 28.7919 24.1369 27.8566C24.8813 27.5719 25.5299 27.2727 25.5673 27.2194C25.6199 27.1634 25.4348 26.9924 25.1768 26.8496C24.7112 26.5865 24.223 25.9214 24.3604 25.726C24.413 25.67 25.1153 25.502 25.9313 25.3612L27.412 25.1056L27.4801 25.4998Z" fill="#FAFAFA"/>
<path d="M24.7786 26.0753C24.8205 26.3179 25.2433 26.604 25.7864 26.7756C26.0819 26.8651 26.2455 26.8213 26.5768 26.5768C26.9356 26.3119 27.2224 25.8096 27.1779 25.5519C27.17 25.5064 26.6182 25.5548 25.9534 25.6696C25.0468 25.8261 24.7524 25.9237 24.7786 26.0753Z" fill="#FAFAFA"/>
</g>
<defs>
<clipPath id="clip0_35_2048">
<rect width="46" height="32" fill="white" transform="translate(0 7.82379) rotate(-9.79261)"/>
</clipPath>
</defs>
</svg>
