<svg width="56" height="32" viewBox="0 0 56 32" fill="none" xmlns="http://www.w3.org/2000/svg">
<g clip-path="url(#clip0_136_2234)">
<path d="M25 20.5C24.3 20.5 23.7083 20.2583 23.225 19.775C22.7417 19.2917 22.5 18.7 22.5 18C22.5 17.3 22.7417 16.7083 23.225 16.225C23.7083 15.7417 24.3 15.5 25 15.5C25.7 15.5 26.2917 15.7417 26.775 16.225C27.2583 16.7083 27.5 17.3 27.5 18C27.5 18.7 27.2583 19.2917 26.775 19.775C26.2917 20.2583 25.7 20.5 25 20.5ZM21 26C20.45 26 19.9792 25.8042 19.5875 25.4125C19.1958 25.0208 19 24.55 19 24V10C19 9.45 19.1958 8.97917 19.5875 8.5875C19.9792 8.19583 20.45 8 21 8H22V6H24V8H32V6H34V8H35C35.55 8 36.0208 8.19583 36.4125 8.5875C36.8042 8.97917 37 9.45 37 10V24C37 24.55 36.8042 25.0208 36.4125 25.4125C36.0208 25.8042 35.55 26 35 26H21ZM21 24H35V14H21V24Z" fill="#49454F"/>
</g>
<defs>
<clipPath id="clip0_136_2234">
<rect width="56" height="32" rx="16" fill="white"/>
</clipPath>
</defs>
</svg>
