<svg width="56" height="32" viewBox="0 0 56 32" fill="none" xmlns="http://www.w3.org/2000/svg">
<g clip-path="url(#clip0_136_2228)">
<path d="M21.85 21.1C22.7 20.45 23.65 19.9375 24.7 19.5625C25.75 19.1875 26.85 19 28 19C29.15 19 30.25 19.1875 31.3 19.5625C32.35 19.9375 33.3 20.45 34.15 21.1C34.7333 20.4167 35.1875 19.6417 35.5125 18.775C35.8375 17.9083 36 16.9833 36 16C36 13.7833 35.2208 11.8958 33.6625 10.3375C32.1042 8.77917 30.2167 8 28 8C25.7833 8 23.8958 8.77917 22.3375 10.3375C20.7792 11.8958 20 13.7833 20 16C20 16.9833 20.1625 17.9083 20.4875 18.775C20.8125 19.6417 21.2667 20.4167 21.85 21.1ZM28 17C27.0167 17 26.1875 16.6625 25.5125 15.9875C24.8375 15.3125 24.5 14.4833 24.5 13.5C24.5 12.5167 24.8375 11.6875 25.5125 11.0125C26.1875 10.3375 27.0167 10 28 10C28.9833 10 29.8125 10.3375 30.4875 11.0125C31.1625 11.6875 31.5 12.5167 31.5 13.5C31.5 14.4833 31.1625 15.3125 30.4875 15.9875C29.8125 16.6625 28.9833 17 28 17ZM28 26C26.6167 26 25.3167 25.7375 24.1 25.2125C22.8833 24.6875 21.825 23.975 20.925 23.075C20.025 22.175 19.3125 21.1167 18.7875 19.9C18.2625 18.6833 18 17.3833 18 16C18 14.6167 18.2625 13.3167 18.7875 12.1C19.3125 10.8833 20.025 9.825 20.925 8.925C21.825 8.025 22.8833 7.3125 24.1 6.7875C25.3167 6.2625 26.6167 6 28 6C29.3833 6 30.6833 6.2625 31.9 6.7875C33.1167 7.3125 34.175 8.025 35.075 8.925C35.975 9.825 36.6875 10.8833 37.2125 12.1C37.7375 13.3167 38 14.6167 38 16C38 17.3833 37.7375 18.6833 37.2125 19.9C36.6875 21.1167 35.975 22.175 35.075 23.075C34.175 23.975 33.1167 24.6875 31.9 25.2125C30.6833 25.7375 29.3833 26 28 26Z" fill="#49454F"/>
</g>
<defs>
<clipPath id="clip0_136_2228">
<rect width="56" height="32" rx="16" fill="white"/>
</clipPath>
</defs>
</svg>
