<svg width="60" height="56" viewBox="0 0 60 56" fill="none" xmlns="http://www.w3.org/2000/svg">
<g clip-path="url(#clip0_83_3304)">
<g clip-path="url(#clip1_83_3304)">
<path d="M30 19C31.6569 19 33 17.6569 33 16C33 14.3431 31.6569 13 30 13C28.3431 13 27 14.3431 27 16C27 17.6569 28.3431 19 30 19Z" stroke="#49454F" stroke-width="2.5" stroke-linecap="round" stroke-linejoin="round"/>
<path d="M37.4 19C37.2669 19.3016 37.2272 19.6362 37.286 19.9606C37.3448 20.285 37.4995 20.5843 37.73 20.82L37.79 20.88C37.976 21.0657 38.1235 21.2863 38.2241 21.5291C38.3248 21.7719 38.3766 22.0322 38.3766 22.295C38.3766 22.5578 38.3248 22.8181 38.2241 23.0609C38.1235 23.3037 37.976 23.5243 37.79 23.71C37.6043 23.896 37.3837 24.0435 37.1409 24.1441C36.8981 24.2448 36.6378 24.2966 36.375 24.2966C36.1122 24.2966 35.8519 24.2448 35.6091 24.1441C35.3663 24.0435 35.1457 23.896 34.96 23.71L34.9 23.65C34.6643 23.4195 34.365 23.2648 34.0406 23.206C33.7162 23.1472 33.3816 23.1869 33.08 23.32C32.7842 23.4468 32.532 23.6572 32.3543 23.9255C32.1766 24.1938 32.0813 24.5082 32.08 24.83V25C32.08 25.5304 31.8693 26.0391 31.4942 26.4142C31.1191 26.7893 30.6104 27 30.08 27C29.5496 27 29.0409 26.7893 28.6658 26.4142C28.2907 26.0391 28.08 25.5304 28.08 25V24.91C28.0723 24.579 27.9651 24.258 27.7725 23.9887C27.5799 23.7194 27.3107 23.5143 27 23.4C26.6984 23.2669 26.3638 23.2272 26.0394 23.286C25.715 23.3448 25.4157 23.4995 25.18 23.73L25.12 23.79C24.9343 23.976 24.7137 24.1235 24.4709 24.2241C24.2281 24.3248 23.9678 24.3766 23.705 24.3766C23.4422 24.3766 23.1819 24.3248 22.9391 24.2241C22.6963 24.1235 22.4757 23.976 22.29 23.79C22.104 23.6043 21.9565 23.3837 21.8559 23.1409C21.7552 22.8981 21.7034 22.6378 21.7034 22.375C21.7034 22.1122 21.7552 21.8519 21.8559 21.6091C21.9565 21.3663 22.104 21.1457 22.29 20.96L22.35 20.9C22.5805 20.6643 22.7352 20.365 22.794 20.0406C22.8528 19.7162 22.8131 19.3816 22.68 19.08C22.5532 18.7842 22.3428 18.532 22.0745 18.3543C21.8062 18.1766 21.4918 18.0813 21.17 18.08H21C20.4696 18.08 19.9609 17.8693 19.5858 17.4942C19.2107 17.1191 19 16.6104 19 16.08C19 15.5496 19.2107 15.0409 19.5858 14.6658C19.9609 14.2907 20.4696 14.08 21 14.08H21.09C21.421 14.0723 21.742 13.9651 22.0113 13.7725C22.2806 13.5799 22.4857 13.3107 22.6 13C22.7331 12.6984 22.7728 12.3638 22.714 12.0394C22.6552 11.715 22.5005 11.4157 22.27 11.18L22.21 11.12C22.024 10.9343 21.8765 10.7137 21.7759 10.4709C21.6752 10.2281 21.6234 9.96783 21.6234 9.705C21.6234 9.44217 21.6752 9.18192 21.7759 8.93912C21.8765 8.69632 22.024 8.47575 22.21 8.29C22.3957 8.10405 22.6163 7.95653 22.8591 7.85588C23.1019 7.75523 23.3622 7.70343 23.625 7.70343C23.8878 7.70343 24.1481 7.75523 24.3909 7.85588C24.6337 7.95653 24.8543 8.10405 25.04 8.29L25.1 8.35C25.3357 8.58054 25.635 8.73519 25.9594 8.794C26.2838 8.85282 26.6184 8.81312 26.92 8.68H27C27.2958 8.55324 27.548 8.34276 27.7257 8.07447C27.9034 7.80618 27.9987 7.49179 28 7.17V7C28 6.46957 28.2107 5.96086 28.5858 5.58579C28.9609 5.21071 29.4696 5 30 5C30.5304 5 31.0391 5.21071 31.4142 5.58579C31.7893 5.96086 32 6.46957 32 7V7.09C32.0013 7.41179 32.0966 7.72618 32.2743 7.99447C32.452 8.26276 32.7042 8.47324 33 8.6C33.3016 8.73312 33.6362 8.77282 33.9606 8.714C34.285 8.65519 34.5843 8.50054 34.82 8.27L34.88 8.21C35.0657 8.02405 35.2863 7.87653 35.5291 7.77588C35.7719 7.67523 36.0322 7.62343 36.295 7.62343C36.5578 7.62343 36.8181 7.67523 37.0609 7.77588C37.3037 7.87653 37.5243 8.02405 37.71 8.21C37.896 8.39575 38.0435 8.61632 38.1441 8.85912C38.2448 9.10192 38.2966 9.36217 38.2966 9.625C38.2966 9.88783 38.2448 10.1481 38.1441 10.3909C38.0435 10.6337 37.896 10.8543 37.71 11.04L37.65 11.1C37.4195 11.3357 37.2648 11.635 37.206 11.9594C37.1472 12.2838 37.1869 12.6184 37.32 12.92V13C37.4468 13.2958 37.6572 13.548 37.9255 13.7257C38.1938 13.9034 38.5082 13.9987 38.83 14H39C39.5304 14 40.0391 14.2107 40.4142 14.5858C40.7893 14.9609 41 15.4696 41 16C41 16.5304 40.7893 17.0391 40.4142 17.4142C40.0391 17.7893 39.5304 18 39 18H38.91C38.5882 18.0013 38.2738 18.0966 38.0055 18.2743C37.7372 18.452 37.5268 18.7042 37.4 19Z" stroke="#49454F" stroke-width="2.5" stroke-linecap="round" stroke-linejoin="round"/>
</g>
</g>
<path d="M11.3984 45.8027C11.3984 45.627 11.3711 45.4707 11.3164 45.334C11.2656 45.1973 11.1738 45.0723 11.041 44.959C10.9082 44.8457 10.7207 44.7363 10.4785 44.6309C10.2402 44.5215 9.93555 44.4102 9.56445 44.2969C9.1582 44.1719 8.7832 44.0332 8.43945 43.8809C8.09961 43.7246 7.80273 43.5449 7.54883 43.3418C7.29492 43.1348 7.09766 42.8984 6.95703 42.6328C6.81641 42.3633 6.74609 42.0527 6.74609 41.7012C6.74609 41.3535 6.81836 41.0371 6.96289 40.752C7.11133 40.4668 7.32031 40.2207 7.58984 40.0137C7.86328 39.8027 8.18555 39.6406 8.55664 39.5273C8.92773 39.4102 9.33789 39.3516 9.78711 39.3516C10.4199 39.3516 10.9648 39.4688 11.4219 39.7031C11.8828 39.9375 12.2363 40.252 12.4824 40.6465C12.7324 41.041 12.8574 41.4766 12.8574 41.9531H11.3984C11.3984 41.6719 11.3379 41.4238 11.2168 41.209C11.0996 40.9902 10.9199 40.8184 10.6777 40.6934C10.4395 40.5684 10.1367 40.5059 9.76953 40.5059C9.42188 40.5059 9.13281 40.5586 8.90234 40.6641C8.67188 40.7695 8.5 40.9121 8.38672 41.0918C8.27344 41.2715 8.2168 41.4746 8.2168 41.7012C8.2168 41.8613 8.25391 42.0078 8.32812 42.1406C8.40234 42.2695 8.51562 42.3906 8.66797 42.5039C8.82031 42.6133 9.01172 42.7168 9.24219 42.8145C9.47266 42.9121 9.74414 43.0059 10.0566 43.0957C10.5293 43.2363 10.9414 43.3926 11.293 43.5645C11.6445 43.7324 11.9375 43.9238 12.1719 44.1387C12.4062 44.3535 12.582 44.5977 12.6992 44.8711C12.8164 45.1406 12.875 45.4473 12.875 45.791C12.875 46.1504 12.8027 46.4746 12.6582 46.7637C12.5137 47.0488 12.3066 47.293 12.0371 47.4961C11.7715 47.6953 11.4512 47.8496 11.0762 47.959C10.7051 48.0645 10.291 48.1172 9.83398 48.1172C9.42383 48.1172 9.01953 48.0625 8.62109 47.9531C8.22656 47.8438 7.86719 47.6777 7.54297 47.4551C7.21875 47.2285 6.96094 46.9473 6.76953 46.6113C6.57812 46.2715 6.48242 45.875 6.48242 45.4219H7.95312C7.95312 45.6992 8 45.9355 8.09375 46.1309C8.19141 46.3262 8.32617 46.4863 8.49805 46.6113C8.66992 46.7324 8.86914 46.8223 9.0957 46.8809C9.32617 46.9395 9.57227 46.9688 9.83398 46.9688C10.1777 46.9688 10.4648 46.9199 10.6953 46.8223C10.9297 46.7246 11.1055 46.5879 11.2227 46.4121C11.3398 46.2363 11.3984 46.0332 11.3984 45.8027ZM17.3301 48.1172C16.8613 48.1172 16.4375 48.041 16.0586 47.8887C15.6836 47.7324 15.3633 47.5156 15.0977 47.2383C14.8359 46.9609 14.6348 46.6348 14.4941 46.2598C14.3535 45.8848 14.2832 45.4805 14.2832 45.0469V44.8125C14.2832 44.3164 14.3555 43.8672 14.5 43.4648C14.6445 43.0625 14.8457 42.7188 15.1035 42.4336C15.3613 42.1445 15.666 41.9238 16.0176 41.7715C16.3691 41.6191 16.75 41.543 17.1602 41.543C17.6133 41.543 18.0098 41.6191 18.3496 41.7715C18.6895 41.9238 18.9707 42.1387 19.1934 42.416C19.4199 42.6895 19.5879 43.0156 19.6973 43.3945C19.8105 43.7734 19.8672 44.1914 19.8672 44.6484V45.252H14.9688V44.2383H18.4727V44.127C18.4648 43.873 18.4141 43.6348 18.3203 43.4121C18.2305 43.1895 18.0918 43.0098 17.9043 42.873C17.7168 42.7363 17.4668 42.668 17.1543 42.668C16.9199 42.668 16.7109 42.7188 16.5273 42.8203C16.3477 42.918 16.1973 43.0605 16.0762 43.248C15.9551 43.4355 15.8613 43.6621 15.7949 43.9277C15.7324 44.1895 15.7012 44.4844 15.7012 44.8125V45.0469C15.7012 45.3242 15.7383 45.582 15.8125 45.8203C15.8906 46.0547 16.0039 46.2598 16.1523 46.4355C16.3008 46.6113 16.4805 46.75 16.6914 46.8516C16.9023 46.9492 17.1426 46.998 17.4121 46.998C17.752 46.998 18.0547 46.9297 18.3203 46.793C18.5859 46.6562 18.8164 46.4629 19.0117 46.2129L19.7559 46.9336C19.6191 47.1328 19.4414 47.3242 19.2227 47.5078C19.0039 47.6875 18.7363 47.834 18.4199 47.9473C18.1074 48.0605 17.7441 48.1172 17.3301 48.1172ZM24.375 41.6602V42.6914H20.8008V41.6602H24.375ZM21.832 40.1074H23.2441V46.248C23.2441 46.4434 23.2715 46.5938 23.3262 46.6992C23.3848 46.8008 23.4648 46.8691 23.5664 46.9043C23.668 46.9395 23.7871 46.957 23.9238 46.957C24.0215 46.957 24.1152 46.9512 24.2051 46.9395C24.2949 46.9277 24.3672 46.916 24.4219 46.9043L24.4277 47.9824C24.3105 48.0176 24.1738 48.0488 24.0176 48.0762C23.8652 48.1035 23.6895 48.1172 23.4902 48.1172C23.166 48.1172 22.8789 48.0605 22.6289 47.9473C22.3789 47.8301 22.1836 47.6406 22.043 47.3789C21.9023 47.1172 21.832 46.7695 21.832 46.3359V40.1074ZM28.8711 41.6602V42.6914H25.2969V41.6602H28.8711ZM26.3281 40.1074H27.7402V46.248C27.7402 46.4434 27.7676 46.5938 27.8223 46.6992C27.8809 46.8008 27.9609 46.8691 28.0625 46.9043C28.1641 46.9395 28.2832 46.957 28.4199 46.957C28.5176 46.957 28.6113 46.9512 28.7012 46.9395C28.791 46.9277 28.8633 46.916 28.918 46.9043L28.9238 47.9824C28.8066 48.0176 28.6699 48.0488 28.5137 48.0762C28.3613 48.1035 28.1855 48.1172 27.9863 48.1172C27.6621 48.1172 27.375 48.0605 27.125 47.9473C26.875 47.8301 26.6797 47.6406 26.5391 47.3789C26.3984 47.1172 26.3281 46.7695 26.3281 46.3359V40.1074ZM31.9727 41.6602V48H30.5547V41.6602H31.9727ZM30.4609 39.9961C30.4609 39.7812 30.5312 39.6035 30.6719 39.4629C30.8164 39.3184 31.0156 39.2461 31.2695 39.2461C31.5195 39.2461 31.7168 39.3184 31.8613 39.4629C32.0059 39.6035 32.0781 39.7812 32.0781 39.9961C32.0781 40.207 32.0059 40.3828 31.8613 40.5234C31.7168 40.6641 31.5195 40.7344 31.2695 40.7344C31.0156 40.7344 30.8164 40.6641 30.6719 40.5234C30.5312 40.3828 30.4609 40.207 30.4609 39.9961ZM35.4199 43.0137V48H34.0078V41.6602H35.3379L35.4199 43.0137ZM35.168 44.5957L34.7109 44.5898C34.7148 44.1406 34.7773 43.7285 34.8984 43.3535C35.0234 42.9785 35.1953 42.6562 35.4141 42.3867C35.6367 42.1172 35.9023 41.9102 36.2109 41.7656C36.5195 41.6172 36.8633 41.543 37.2422 41.543C37.5469 41.543 37.8223 41.5859 38.0684 41.6719C38.3184 41.7539 38.5312 41.8887 38.707 42.0762C38.8867 42.2637 39.0234 42.5078 39.1172 42.8086C39.2109 43.1055 39.2578 43.4707 39.2578 43.9043V48H37.8398V43.8984C37.8398 43.5938 37.7949 43.3535 37.7051 43.1777C37.6191 42.998 37.4922 42.8711 37.3242 42.7969C37.1602 42.7188 36.9551 42.6797 36.709 42.6797C36.4668 42.6797 36.25 42.7305 36.0586 42.832C35.8672 42.9336 35.7051 43.0723 35.5723 43.248C35.4434 43.4238 35.3438 43.627 35.2734 43.8574C35.2031 44.0879 35.168 44.334 35.168 44.5957ZM45.2598 41.6602H46.543V47.8242C46.543 48.3945 46.4219 48.8789 46.1797 49.2773C45.9375 49.6758 45.5996 49.9785 45.166 50.1855C44.7324 50.3965 44.2305 50.502 43.6602 50.502C43.418 50.502 43.1484 50.4668 42.8516 50.3965C42.5586 50.3262 42.2734 50.2129 41.9961 50.0566C41.7227 49.9043 41.4941 49.7031 41.3105 49.4531L41.9727 48.6211C42.1992 48.8906 42.4492 49.0879 42.7227 49.2129C42.9961 49.3379 43.2832 49.4004 43.584 49.4004C43.9082 49.4004 44.1836 49.3398 44.4102 49.2188C44.6406 49.1016 44.8184 48.9277 44.9434 48.6973C45.0684 48.4668 45.1309 48.1855 45.1309 47.8535V43.0957L45.2598 41.6602ZM40.9531 44.9004V44.7773C40.9531 44.2969 41.0117 43.8594 41.1289 43.4648C41.2461 43.0664 41.4141 42.7246 41.6328 42.4395C41.8516 42.1504 42.1172 41.9297 42.4297 41.7773C42.7422 41.6211 43.0957 41.543 43.4902 41.543C43.9004 41.543 44.25 41.6172 44.5391 41.7656C44.832 41.9141 45.0762 42.127 45.2715 42.4043C45.4668 42.6777 45.6191 43.0059 45.7285 43.3887C45.8418 43.7676 45.9258 44.1895 45.9805 44.6543V45.0469C45.9297 45.5 45.8438 45.9141 45.7227 46.2891C45.6016 46.6641 45.4414 46.9883 45.2422 47.2617C45.043 47.5352 44.7969 47.7461 44.5039 47.8945C44.2148 48.043 43.873 48.1172 43.4785 48.1172C43.0918 48.1172 42.7422 48.0371 42.4297 47.877C42.1211 47.7168 41.8555 47.4922 41.6328 47.2031C41.4141 46.9141 41.2461 46.5742 41.1289 46.1836C41.0117 45.7891 40.9531 45.3613 40.9531 44.9004ZM42.3652 44.7773V44.9004C42.3652 45.1895 42.3926 45.459 42.4473 45.709C42.5059 45.959 42.5938 46.1797 42.7109 46.3711C42.832 46.5586 42.9844 46.707 43.168 46.8164C43.3555 46.9219 43.5762 46.9746 43.8301 46.9746C44.1621 46.9746 44.4336 46.9043 44.6445 46.7637C44.8594 46.623 45.0234 46.4336 45.1367 46.1953C45.2539 45.9531 45.3359 45.6836 45.3828 45.3867V44.3262C45.3594 44.0957 45.3105 43.8809 45.2363 43.6816C45.166 43.4824 45.0703 43.3086 44.9492 43.1602C44.8281 43.0078 44.6758 42.8906 44.4922 42.8086C44.3086 42.7227 44.0918 42.6797 43.8418 42.6797C43.5879 42.6797 43.3672 42.7344 43.1797 42.8438C42.9922 42.9531 42.8379 43.1035 42.7168 43.2949C42.5996 43.4863 42.5117 43.709 42.4531 43.9629C42.3945 44.2168 42.3652 44.4883 42.3652 44.7773ZM52.0645 46.2832C52.0645 46.1426 52.0293 46.0156 51.959 45.9023C51.8887 45.7852 51.7539 45.6797 51.5547 45.5859C51.3594 45.4922 51.0703 45.4062 50.6875 45.3281C50.3516 45.2539 50.043 45.166 49.7617 45.0645C49.4844 44.959 49.2461 44.832 49.0469 44.6836C48.8477 44.5352 48.6934 44.3594 48.584 44.1562C48.4746 43.9531 48.4199 43.7188 48.4199 43.4531C48.4199 43.1953 48.4766 42.9512 48.5898 42.7207C48.7031 42.4902 48.8652 42.2871 49.0762 42.1113C49.2871 41.9355 49.543 41.7969 49.8438 41.6953C50.1484 41.5938 50.4883 41.543 50.8633 41.543C51.3945 41.543 51.8496 41.6328 52.2285 41.8125C52.6113 41.9883 52.9043 42.2285 53.1074 42.5332C53.3105 42.834 53.4121 43.1738 53.4121 43.5527H52C52 43.3848 51.957 43.2285 51.8711 43.084C51.7891 42.9355 51.6641 42.8164 51.4961 42.7266C51.3281 42.6328 51.1172 42.5859 50.8633 42.5859C50.6211 42.5859 50.4199 42.625 50.2598 42.7031C50.1035 42.7773 49.9863 42.875 49.9082 42.9961C49.834 43.1172 49.7969 43.25 49.7969 43.3945C49.7969 43.5 49.8164 43.5957 49.8555 43.6816C49.8984 43.7637 49.9688 43.8398 50.0664 43.9102C50.1641 43.9766 50.2969 44.0391 50.4648 44.0977C50.6367 44.1562 50.8516 44.2129 51.1094 44.2676C51.5938 44.3691 52.0098 44.5 52.3574 44.6602C52.709 44.8164 52.9785 45.0195 53.166 45.2695C53.3535 45.5156 53.4473 45.8281 53.4473 46.207C53.4473 46.4883 53.3867 46.7461 53.2656 46.9805C53.1484 47.2109 52.9766 47.4121 52.75 47.584C52.5234 47.752 52.252 47.8828 51.9355 47.9766C51.623 48.0703 51.2715 48.1172 50.8809 48.1172C50.3066 48.1172 49.8203 48.0156 49.4219 47.8125C49.0234 47.6055 48.7207 47.3418 48.5137 47.0215C48.3105 46.6973 48.209 46.3613 48.209 46.0137H49.5742C49.5898 46.2754 49.6621 46.4844 49.791 46.6406C49.9238 46.793 50.0879 46.9043 50.2832 46.9746C50.4824 47.041 50.6875 47.0742 50.8984 47.0742C51.1523 47.0742 51.3652 47.041 51.5371 46.9746C51.709 46.9043 51.8398 46.8105 51.9297 46.6934C52.0195 46.5723 52.0645 46.4355 52.0645 46.2832Z" fill="#49454F"/>
<defs>
<clipPath id="clip0_83_3304">
<rect x="2" width="56" height="32" rx="16" fill="white"/>
</clipPath>
<clipPath id="clip1_83_3304">
<rect width="24" height="24" fill="white" transform="translate(18 4)"/>
</clipPath>
</defs>
</svg>
