<svg width="56" height="32" viewBox="0 0 56 32" fill="none" xmlns="http://www.w3.org/2000/svg">
<g clip-path="url(#clip0_174_392)">
<path d="M28 19C29.6569 19 31 17.6569 31 16C31 14.3431 29.6569 13 28 13C26.3431 13 25 14.3431 25 16C25 17.6569 26.3431 19 28 19Z" stroke="#49454F" stroke-width="2.5" stroke-linecap="round" stroke-linejoin="round"/>
<path d="M35.4 19C35.2669 19.3016 35.2272 19.6362 35.286 19.9606C35.3448 20.285 35.4995 20.5843 35.73 20.82L35.79 20.88C35.976 21.0657 36.1235 21.2863 36.2241 21.5291C36.3248 21.7719 36.3766 22.0322 36.3766 22.295C36.3766 22.5578 36.3248 22.8181 36.2241 23.0609C36.1235 23.3037 35.976 23.5243 35.79 23.71C35.6043 23.896 35.3837 24.0435 35.1409 24.1441C34.8981 24.2448 34.6378 24.2966 34.375 24.2966C34.1122 24.2966 33.8519 24.2448 33.6091 24.1441C33.3663 24.0435 33.1457 23.896 32.96 23.71L32.9 23.65C32.6643 23.4195 32.365 23.2648 32.0406 23.206C31.7162 23.1472 31.3816 23.1869 31.08 23.32C30.7842 23.4468 30.532 23.6572 30.3543 23.9255C30.1766 24.1938 30.0813 24.5082 30.08 24.83V25C30.08 25.5304 29.8693 26.0391 29.4942 26.4142C29.1191 26.7893 28.6104 27 28.08 27C27.5496 27 27.0409 26.7893 26.6658 26.4142C26.2907 26.0391 26.08 25.5304 26.08 25V24.91C26.0723 24.579 25.9651 24.258 25.7725 23.9887C25.5799 23.7194 25.3107 23.5143 25 23.4C24.6984 23.2669 24.3638 23.2272 24.0394 23.286C23.715 23.3448 23.4157 23.4995 23.18 23.73L23.12 23.79C22.9343 23.976 22.7137 24.1235 22.4709 24.2241C22.2281 24.3248 21.9678 24.3766 21.705 24.3766C21.4422 24.3766 21.1819 24.3248 20.9391 24.2241C20.6963 24.1235 20.4757 23.976 20.29 23.79C20.104 23.6043 19.9565 23.3837 19.8559 23.1409C19.7552 22.8981 19.7034 22.6378 19.7034 22.375C19.7034 22.1122 19.7552 21.8519 19.8559 21.6091C19.9565 21.3663 20.104 21.1457 20.29 20.96L20.35 20.9C20.5805 20.6643 20.7352 20.365 20.794 20.0406C20.8528 19.7162 20.8131 19.3816 20.68 19.08C20.5532 18.7842 20.3428 18.532 20.0745 18.3543C19.8062 18.1766 19.4918 18.0813 19.17 18.08H19C18.4696 18.08 17.9609 17.8693 17.5858 17.4942C17.2107 17.1191 17 16.6104 17 16.08C17 15.5496 17.2107 15.0409 17.5858 14.6658C17.9609 14.2907 18.4696 14.08 19 14.08H19.09C19.421 14.0723 19.742 13.9651 20.0113 13.7725C20.2806 13.5799 20.4857 13.3107 20.6 13C20.7331 12.6984 20.7728 12.3638 20.714 12.0394C20.6552 11.715 20.5005 11.4157 20.27 11.18L20.21 11.12C20.024 10.9343 19.8765 10.7137 19.7759 10.4709C19.6752 10.2281 19.6234 9.96783 19.6234 9.705C19.6234 9.44217 19.6752 9.18192 19.7759 8.93912C19.8765 8.69632 20.024 8.47575 20.21 8.29C20.3957 8.10405 20.6163 7.95653 20.8591 7.85588C21.1019 7.75523 21.3622 7.70343 21.625 7.70343C21.8878 7.70343 22.1481 7.75523 22.3909 7.85588C22.6337 7.95653 22.8543 8.10405 23.04 8.29L23.1 8.35C23.3357 8.58054 23.635 8.73519 23.9594 8.794C24.2838 8.85282 24.6184 8.81312 24.92 8.68H25C25.2958 8.55324 25.548 8.34276 25.7257 8.07447C25.9034 7.80618 25.9987 7.49179 26 7.17V7C26 6.46957 26.2107 5.96086 26.5858 5.58579C26.9609 5.21071 27.4696 5 28 5C28.5304 5 29.0391 5.21071 29.4142 5.58579C29.7893 5.96086 30 6.46957 30 7V7.09C30.0013 7.41179 30.0966 7.72618 30.2743 7.99447C30.452 8.26276 30.7042 8.47324 31 8.6C31.3016 8.73312 31.6362 8.77282 31.9606 8.714C32.285 8.65519 32.5843 8.50054 32.82 8.27L32.88 8.21C33.0657 8.02405 33.2863 7.87653 33.5291 7.77588C33.7719 7.67523 34.0322 7.62343 34.295 7.62343C34.5578 7.62343 34.8181 7.67523 35.0609 7.77588C35.3037 7.87653 35.5243 8.02405 35.71 8.21C35.896 8.39575 36.0435 8.61632 36.1441 8.85912C36.2448 9.10192 36.2966 9.36217 36.2966 9.625C36.2966 9.88783 36.2448 10.1481 36.1441 10.3909C36.0435 10.6337 35.896 10.8543 35.71 11.04L35.65 11.1C35.4195 11.3357 35.2648 11.635 35.206 11.9594C35.1472 12.2838 35.1869 12.6184 35.32 12.92V13C35.4468 13.2958 35.6572 13.548 35.9255 13.7257C36.1938 13.9034 36.5082 13.9987 36.83 14H37C37.5304 14 38.0391 14.2107 38.4142 14.5858C38.7893 14.9609 39 15.4696 39 16C39 16.5304 38.7893 17.0391 38.4142 17.4142C38.0391 17.7893 37.5304 18 37 18H36.91C36.5882 18.0013 36.2738 18.0966 36.0055 18.2743C35.7372 18.452 35.5268 18.7042 35.4 19Z" stroke="#49454F" stroke-width="2.5" stroke-linecap="round" stroke-linejoin="round"/>
</g>
<defs>
<clipPath id="clip0_174_392">
<rect width="24" height="24" fill="white" transform="translate(16 4)"/>
</clipPath>
</defs>
</svg>
